<svg width="26" height="26" viewBox="0 0 500 500" fill="none" xmlns="http://www.w3.org/2000/svg">
<rect width="500" height="500" fill="white"/>
<path d="M124.118 282.4H343.552C360.472 282.4 368.932 282.4 375.666 279.247C381.599 276.469 386.584 272.008 390.001 266.421C393.879 260.078 394.814 251.672 396.682 234.861L406.455 146.935C407.025 141.801 407.311 139.233 406.485 137.246C405.759 135.501 404.463 134.053 402.808 133.14C400.924 132.1 398.34 132.1 393.172 132.1H115.765M74 82H94.8554C99.276 82 101.486 82 103.215 82.8404C104.738 83.5803 105.999 84.7651 106.833 86.2378C107.78 87.9107 107.918 90.116 108.194 94.5266L123.332 336.673C123.608 341.084 123.746 343.289 124.693 344.962C125.527 346.435 126.788 347.62 128.31 348.36C130.04 349.2 132.25 349.2 136.67 349.2H357.988M165.878 407.65H166.046M316.225 407.65H316.392M174.231 407.65C174.231 412.262 170.491 416 165.878 416C161.265 416 157.526 412.262 157.526 407.65C157.526 403.038 161.265 399.3 165.878 399.3C170.491 399.3 174.231 403.038 174.231 407.65ZM324.578 407.65C324.578 412.262 320.838 416 316.225 416C311.612 416 307.872 412.262 307.872 407.65C307.872 403.038 311.612 399.3 316.225 399.3C320.838 399.3 324.578 403.038 324.578 407.65Z" stroke="#000E3A" stroke-width="35" stroke-linecap="round" stroke-linejoin="round"/>
</svg>
