<svg width="34" height="34" viewBox="0 0 34 34" fill="none" xmlns="http://www.w3.org/2000/svg">
<rect width="33.4769" height="33.4769" rx="6.27692" fill="#00228A"/>
<g clip-path="url(#clip0_1185_14151)">
<path d="M16.6945 33.4769C7.4686 33.4769 0 26.0083 0 16.7824C0 7.46861 7.4686 0 16.6945 0C25.9205 0 33.3891 7.46861 33.3891 16.6945C33.4769 25.9205 25.9205 33.4769 16.6945 33.4769Z" fill="#00228A"/>
<path d="M14.1469 26.7951H18.1887V16.6027H21.0883L21.3519 13.1759H18.1887C18.1887 13.1759 18.1887 11.8579 18.1887 11.2428C18.1887 10.452 18.3644 10.1006 19.1552 10.1006C19.7703 10.1006 21.3519 10.1006 21.3519 10.1006V6.58594C21.3519 6.58594 19.0674 6.58594 18.5402 6.58594C15.5527 6.58594 14.1469 7.90393 14.1469 10.452C14.1469 12.6487 14.1469 13.1759 14.1469 13.1759H12.0381V16.6905H14.1469V26.7951Z" fill="white"/>
</g>
<defs>
<clipPath id="clip0_1185_14151">
<rect width="33.4769" height="33.4769" fill="white"/>
</clipPath>
</defs>
</svg>
