<svg width="34" height="34" viewBox="0 0 34 34" fill="none" xmlns="http://www.w3.org/2000/svg">
<g clip-path="url(#clip0_1185_14137)">
<rect x="0.261719" width="33.4769" height="33.4769" rx="6.27692" fill="#00228A"/>
<path d="M16.9562 33.4769C7.73032 33.4769 0.261719 26.0083 0.261719 16.7824C0.261719 7.46861 7.73032 0 16.9562 0C26.1822 0 33.6508 7.46861 33.6508 16.6945C33.7386 25.9205 26.1822 33.4769 16.9562 33.4769Z" fill="#00228A"/>
<path d="M21.3065 9.25467L21.3065 9.25488H21.3112C22.2457 9.25488 22.7982 9.44199 23.0685 9.62216L23.0679 9.62311L23.0781 9.6272C23.5412 9.81247 23.8174 9.99644 24.1887 10.3677C24.5591 10.7382 24.7431 11.0139 24.9279 11.4751C24.9493 11.5603 24.9752 11.6495 25.0035 11.7473C25.1017 12.0861 25.2294 12.5267 25.3018 13.2501C25.3955 14.2814 25.3956 14.5611 25.3956 17.1939C25.3956 19.8268 25.3955 20.1064 25.3018 21.1378L25.3016 21.1378V21.1425C25.3016 22.077 25.1145 22.6296 24.9343 22.8998L24.9333 22.8992L24.9292 22.9094C24.744 23.3726 24.56 23.6487 24.1887 24.02C23.8183 24.3905 23.5425 24.5744 23.0813 24.7593C22.9962 24.7806 22.9069 24.8065 22.8092 24.8348C22.4707 24.9329 22.0306 25.0605 21.3086 25.1329C20.9101 25.1329 20.6223 25.147 20.2701 25.1641C20.1653 25.1692 20.0548 25.1746 19.9339 25.1799C19.4059 25.2034 18.6781 25.2269 17.3626 25.2269C14.7297 25.2269 14.45 25.2269 13.4187 25.1331L13.4187 25.1329H13.4139C12.4794 25.1329 11.9269 24.9458 11.6566 24.7656L11.6573 24.7647L11.647 24.7606C11.1839 24.5753 10.9077 24.3913 10.5364 24.02C10.166 23.6496 9.98201 23.3739 9.79719 22.9127C9.77581 22.8275 9.74994 22.7382 9.72161 22.6405C9.6234 22.3017 9.49569 21.861 9.42333 21.1376C9.32958 20.1064 9.32955 19.8266 9.32955 17.1939C9.32955 14.561 9.32958 14.2814 9.42335 13.25L9.42356 13.25V13.2452C9.42356 12.3107 9.61067 11.7582 9.79084 11.488L9.79179 11.4886L9.79588 11.4784C9.98115 11.0152 10.1651 10.7391 10.5364 10.3677C10.9069 9.99731 11.1826 9.81333 11.6438 9.62851C11.7289 9.60713 11.8182 9.58126 11.9159 9.55293C12.2548 9.45472 12.6955 9.32701 13.4189 9.25465C14.4501 9.1609 14.7299 9.16087 17.3626 9.16087C19.9954 9.16087 20.2751 9.1609 21.3065 9.25467ZM8.10227 10.6834L8.10219 10.6834L8.10097 10.6862C7.81537 11.3526 7.72092 12.0181 7.62688 13.0525C7.53265 14.089 7.53265 14.4677 7.53265 17.0965V17.0999V17.1033C7.53265 19.7321 7.53265 20.1107 7.62688 21.1473C7.72063 22.1785 7.81487 22.9406 8.10158 23.5149C8.38368 24.173 8.66938 24.746 9.24193 25.2239C9.81146 25.7928 10.3814 26.0778 10.9444 26.3593L10.9461 26.3602L10.9461 26.3602L10.9489 26.3615C11.6153 26.6471 12.2808 26.7415 13.3152 26.8355C14.3517 26.9298 14.7304 26.9298 17.3592 26.9298H17.3626H17.3659C19.9948 26.9298 20.3734 26.9298 21.41 26.8355C22.4412 26.7418 23.2033 26.6476 23.7776 26.3609C24.4357 26.0788 25.0087 25.793 25.4866 25.2205C26.0555 24.651 26.3405 24.0811 26.622 23.5181L26.6229 23.5163L26.6229 23.5163L26.6242 23.5135C26.9098 22.8471 27.0042 22.1817 27.0982 21.1473C27.1925 20.1107 27.1925 19.7321 27.1925 17.1032V17.0999V17.0965C27.1925 14.4677 27.1925 14.089 27.0982 13.0525C27.0045 12.0213 26.9103 11.2592 26.6236 10.6848C26.3412 10.026 26.0551 9.45249 25.4814 8.97436C24.9147 8.50211 24.3472 8.12369 23.779 7.83957L23.779 7.83949L23.7762 7.83828C23.1098 7.55268 22.4443 7.45822 21.41 7.36419C20.3734 7.26996 20.0888 7.26996 17.366 7.26996H17.3626H17.3592C14.7303 7.26996 14.3517 7.26996 13.3152 7.36419C12.284 7.45793 11.5218 7.55217 10.9475 7.83888C10.2887 8.12128 9.71519 8.40729 9.23705 8.98106C8.76481 9.54775 8.38638 10.1152 8.10227 10.6834Z" fill="white" stroke="white" stroke-width="0.104615"/>
<path d="M17.363 12.0668C14.5136 12.0668 12.2338 14.3466 12.2338 17.196C12.2338 20.0453 14.5136 22.3251 17.363 22.3251C20.2123 22.3251 22.4921 20.0453 22.4921 17.196C22.4921 14.3466 20.2123 12.0668 17.363 12.0668ZM17.363 20.3402C15.6056 20.3402 14.1247 18.8594 14.1247 17.102C14.1247 15.3446 15.6056 13.8637 17.363 13.8637C19.1204 13.8637 20.6012 15.3446 20.6012 17.102C20.6012 18.9534 19.2144 20.3402 17.363 20.3402Z" fill="white" stroke="white" stroke-width="0.104615"/>
<path d="M22.6275 13.2037C23.3145 13.2037 23.902 12.6162 23.902 11.9292C23.902 11.2422 23.3145 10.6547 22.6275 10.6547C21.9405 10.6547 21.353 11.2422 21.353 11.9292C21.353 12.6162 21.9405 13.2037 22.6275 13.2037Z" fill="white" stroke="white" stroke-width="0.104615"/>
</g>
<defs>
<clipPath id="clip0_1185_14137">
<rect width="33.4769" height="33.4769" fill="white" transform="translate(0.261719)"/>
</clipPath>
</defs>
</svg>
