<svg width="45" height="45" viewBox="0 0 45 45" fill="none" xmlns="http://www.w3.org/2000/svg">
<rect width="44.9988" height="44.9988" rx="8.62923" fill="#00228A"/>
<path d="M22.5004 45.0027C34.9264 45.0027 44.9998 34.9294 44.9998 22.5033C44.9998 10.0772 34.9264 0.00390625 22.5004 0.00390625C10.0743 0.00390625 0.000976562 10.0772 0.000976562 22.5033C0.000976562 34.9294 10.0743 45.0027 22.5004 45.0027Z" fill="#00228A"/>
<path d="M17.1881 17.4639H12.5879V32.1338H17.1881V17.4639Z" fill="white"/>
<path d="M29.6327 17.1482C29.4631 17.127 29.2829 17.1164 29.1027 17.1058C26.527 16.9998 25.0749 18.5262 24.5661 19.1834C24.4283 19.3636 24.3647 19.4696 24.3647 19.4696V17.5086H19.9658V32.1786H24.3647H24.5661C24.5661 30.684 24.5661 29.2001 24.5661 27.7055C24.5661 26.8999 24.5661 26.0944 24.5661 25.2888C24.5661 24.2924 24.4919 23.2324 24.9901 22.3209C25.4141 21.5577 26.1772 21.1761 27.0358 21.1761C29.5797 21.1761 29.6327 23.4762 29.6327 23.6882C29.6327 23.6988 29.6327 23.7094 29.6327 23.7094V32.2422H34.233V22.6707C34.233 19.3954 32.5688 17.4662 29.6327 17.1482Z" fill="white"/>
<path d="M14.8879 15.5678C16.3631 15.5678 17.559 14.3719 17.559 12.8967C17.559 11.4215 16.3631 10.2256 14.8879 10.2256C13.4127 10.2256 12.2168 11.4215 12.2168 12.8967C12.2168 14.3719 13.4127 15.5678 14.8879 15.5678Z" fill="white"/>
</svg>
