<svg width="22" height="22" viewBox="0 0 22 22" fill="none" xmlns="http://www.w3.org/2000/svg">
<path d="M19.708 16.4993L13.6187 10.9993M8.38063 10.9993L2.29137 16.4993M1.83301 6.41602L9.31752 11.6552C9.92359 12.0794 10.2266 12.2916 10.5562 12.3737C10.8474 12.4463 11.1519 12.4463 11.4431 12.3737C11.7727 12.2916 12.0758 12.0794 12.6818 11.6552L20.1663 6.41602M6.23301 18.3327H15.7663C17.3065 18.3327 18.0766 18.3327 18.6648 18.033C19.1823 17.7693 19.603 17.3486 19.8666 16.8312C20.1663 16.2429 20.1663 15.4728 20.1663 13.9327V8.06602C20.1663 6.52587 20.1663 5.7558 19.8666 5.16754C19.603 4.6501 19.1823 4.2294 18.6648 3.96575C18.0766 3.66602 17.3065 3.66602 15.7663 3.66602H6.23301C4.69286 3.66602 3.92279 3.66602 3.33453 3.96575C2.81709 4.2294 2.39639 4.6501 2.13274 5.16754C1.83301 5.7558 1.83301 6.52587 1.83301 8.06602V13.9327C1.83301 15.4728 1.83301 16.2429 2.13274 16.8312C2.39639 17.3486 2.81709 17.7693 3.33453 18.033C3.92279 18.3327 4.69286 18.3327 6.23301 18.3327Z" stroke="#00228A" stroke-width="2" stroke-linecap="round" stroke-linejoin="round"/>
</svg>
