<svg width="22" height="22" viewBox="0 0 22 22" fill="none" xmlns="http://www.w3.org/2000/svg">
<g clip-path="url(#clip0_2059_15233)">
<path d="M12.8785 5.50065C13.7739 5.67534 14.5967 6.11322 15.2418 6.75826C15.8868 7.4033 16.3247 8.22614 16.4994 9.12148M12.8785 1.83398C14.7387 2.04063 16.4733 2.87364 17.7976 4.19624C19.1218 5.51884 19.957 7.25241 20.166 9.11232M9.37409 12.7085C8.27265 11.607 7.40293 10.3616 6.76493 9.03278C6.71005 8.91848 6.68261 8.86133 6.66153 8.78901C6.58662 8.53202 6.64043 8.21645 6.79627 7.99881C6.84012 7.93756 6.89252 7.88517 6.9973 7.78038C7.31778 7.45991 7.47801 7.29967 7.58277 7.13854C7.97785 6.53089 7.97785 5.74753 7.58277 5.13988C7.47801 4.97875 7.31778 4.81851 6.9973 4.49804L6.81867 4.31941C6.33152 3.83226 6.08794 3.58868 5.82634 3.45636C5.30608 3.19321 4.69167 3.19321 4.1714 3.45636C3.9098 3.58868 3.66623 3.83226 3.17907 4.31941L3.03457 4.46391C2.54908 4.9494 2.30634 5.19214 2.12095 5.52217C1.91523 5.88838 1.76731 6.45717 1.76856 6.87721C1.76969 7.25574 1.84312 7.51444 1.98997 8.03185C2.7792 10.8125 4.2683 13.4363 6.45728 15.6253C8.64626 17.8143 11.2701 19.3034 14.0507 20.0926C14.5681 20.2394 14.8268 20.3129 15.2054 20.314C15.6254 20.3152 16.1942 20.1673 16.5604 19.9616C16.8904 19.7762 17.1332 19.5335 17.6186 19.048L17.7631 18.9035C18.2503 18.4163 18.4939 18.1728 18.6262 17.9112C18.8893 17.3909 18.8893 16.7765 18.6262 16.2562C18.4939 15.9946 18.2503 15.751 17.7631 15.2639L17.5845 15.0853C17.264 14.7648 17.1038 14.6045 16.9427 14.4998C16.335 14.1047 15.5517 14.1047 14.944 14.4998C14.7829 14.6045 14.6226 14.7648 14.3022 15.0853C14.1974 15.19 14.145 15.2424 14.0838 15.2863C13.8661 15.4421 13.5505 15.4959 13.2935 15.421C13.2212 15.3999 13.1641 15.3725 13.0498 15.3176C11.721 14.6796 10.4755 13.8099 9.37409 12.7085Z" stroke="#00228A" stroke-width="2" stroke-linecap="round" stroke-linejoin="round"/>
</g>
<defs>
<clipPath id="clip0_2059_15233">
<rect width="22" height="22" fill="white"/>
</clipPath>
</defs>
</svg>
