<svg xmlns="http://www.w3.org/2000/svg" xmlns:xlink="http://www.w3.org/1999/xlink" width="400" height="400" viewBox="0 0 400 400"><defs><filter id="a" x="0" y="0" width="399" height="399" filterUnits="userSpaceOnUse"><feOffset dx="5" dy="5" input="SourceAlpha"/><feGaussianBlur result="b"/><feFlood flood-color="#222" flood-opacity="0.2"/><feComposite operator="in" in2="b"/><feComposite in="SourceGraphic"/></filter><clipPath id="d"><rect width="400" height="400"/></clipPath></defs><g id="c" clip-path="url(#d)"><rect width="400" height="400" fill="transparent"/><g transform="translate(0.013 0.014)"><g transform="matrix(1, 0, 0, 1, -0.01, -0.01)" filter="url(#a)"><circle cx="197" cy="197" r="197" fill="#01a201"/></g><g transform="translate(33.316 34.23)"><g transform="translate(0 0)"><path d="M262.026,409.732c-2.674.721-5.4,1.364-8.111,1.921a13.087,13.087,0,0,0-10.21,15.442c.081.4.182.789.3,1.176a13.1,13.1,0,0,0,15.148,9.036c3.232-.662,6.49-1.432,9.683-2.291a13.093,13.093,0,1,0-6.808-25.285Z" transform="translate(-63.714 -114.854)" fill="#fff"/><path d="M135.546,398.206c-2.529-1.125-5.051-2.343-7.5-3.624A13.094,13.094,0,0,0,115.93,417.8c2.921,1.521,5.924,2.976,8.936,4.319a13.094,13.094,0,1,0,10.679-23.911Z" transform="translate(-28.5 -110.619)" fill="#fff"/><path d="M197.746,415.236c-2.754-.221-5.547-.534-8.289-.919a13.092,13.092,0,1,0-3.677,25.925c3.262.461,6.583.831,9.865,1.092a13.091,13.091,0,1,0,2.1-26.1Z" transform="translate(-45.677 -116.139)" fill="#fff"/><path d="M321.007,382.621c-2.275,1.566-4.634,3.085-7.009,4.518a13.1,13.1,0,0,0-5.783,14.982,13.287,13.287,0,0,0,1.33,2.991,13.094,13.094,0,0,0,17.972,4.454c2.824-1.7,5.629-3.514,8.334-5.374a13.093,13.093,0,0,0-14.844-21.572Z" transform="translate(-80.523 -107.274)" fill="#fff"/><path d="M386.124,334.6a13.1,13.1,0,0,0-18.278,2.959c-1.615,2.242-3.325,4.466-5.076,6.6a13.091,13.091,0,1,0,20.255,16.591c2.09-2.547,4.131-5.2,6.056-7.873A13.094,13.094,0,0,0,386.124,334.6Z" transform="translate(-94.171 -94.663)" fill="#fff"/><path d="M413.334,270.7a13.088,13.088,0,0,0-16.234,8.9c-.779,2.659-1.645,5.328-2.573,7.933a13.092,13.092,0,0,0,24.647,8.842c1.111-3.1,2.142-6.281,3.061-9.444A13.09,13.09,0,0,0,413.334,270.7Z" transform="translate(-103.056 -78.446)" fill="#fff"/><path d="M334.846,117.424l-17.207,5.347A161.7,161.7,0,0,0,239.871,29.9q-5.619-3.018-11.392-5.559a.579.579,0,0,1-.076-.041c-.161-.068-.33-.131-.487-.2a161.472,161.472,0,0,0-107.467-7.914c-.283.055-.566.109-.845.188-1.2.328-2.415.683-3.612,1.04-1.965.594-3.941,1.233-5.88,1.9-.23.079-.446.177-.669.266A161.354,161.354,0,0,0,30.438,78.639c-.069.094-.148.176-.213.269-1.908,2.679-3.756,5.457-5.5,8.26-.109.179-.2.366-.3.551q-2.611,4.235-5,8.657A161.658,161.658,0,0,0,1.284,193.484c.01.076.018.147.025.222.007.053.018.109.031.164A164.483,164.483,0,0,0,7,220.371a161.509,161.509,0,0,0,34.372,61.416A13.093,13.093,0,0,0,60.9,264.34a135.063,135.063,0,0,1-19.867-29.106c-.057-.129-.107-.261-.169-.385-1.248-2.476-2.435-5.014-3.533-7.555a.219.219,0,0,0-.021-.048,138.83,138.83,0,0,1-5.237-14.435A136.857,136.857,0,0,1,82.214,63.092c.672-.489,1.343-.982,2.021-1.456a136.779,136.779,0,0,1,82.676-24.853c.232.01.457.017.687.024.876.027,1.748.073,2.619.122.352.018.7.038,1.054.06A137.2,137.2,0,0,1,280.4,103.658a.765.765,0,0,0,.037.069c.343.58.678,1.158,1.015,1.745.04.066.083.124.122.191a136.32,136.32,0,0,1,11.057,24.881l-17.206,5.35c-4.779,1.485-5.249,4.923-1.055,7.641l37.444,24.254a7.322,7.322,0,0,0,11.119-3.452l17.107-41.21C341.955,118.507,339.621,115.94,334.846,117.424Z" transform="translate(0 -10.479)" fill="#fff"/><text transform="translate(164.45 201.596)" fill="#fff" font-size="119" font-family="OpenSans-SemiBoldItalic, Open Sans" font-weight="600" font-style="italic"><tspan x="-100.639" y="0">24h</tspan></text></g></g></g></g></svg>