<svg width="18" height="20" viewBox="0 0 18 20" fill="none" xmlns="http://www.w3.org/2000/svg">
<path d="M16.8153 18.2578C16.8153 16.9198 16.8153 16.2508 16.65 15.7064C16.2777 14.4807 15.3173 13.5216 14.0901 13.1498C13.5451 12.9846 12.8752 12.9846 11.5356 12.9846H6.7358C5.39612 12.9846 4.72628 12.9846 4.18122 13.1498C2.95402 13.5216 1.99367 14.4807 1.6214 15.7064C1.45605 16.2508 1.45605 16.9198 1.45605 18.2578M13.4555 5.31446C13.4555 7.69727 11.5214 9.62892 9.13568 9.62892C6.74992 9.62892 4.81589 7.69727 4.81589 5.31446C4.81589 2.93165 6.74992 1 9.13568 1C11.5214 1 13.4555 2.93165 13.4555 5.31446Z" stroke="#000E3A" stroke-width="2" stroke-linecap="round" stroke-linejoin="round"/>
</svg>
