<svg width="34" height="34" viewBox="0 0 34 34" fill="none" xmlns="http://www.w3.org/2000/svg">
<g clip-path="url(#clip0_1185_14145)">
<rect x="0.523438" width="33.4769" height="33.4769" rx="6.27692" fill="#00228A"/>
<path d="M17.2619 33.4769C26.5063 33.4769 34.0004 25.9829 34.0004 16.7385C34.0004 7.49407 26.5063 0 17.2619 0C8.0175 0 0.523438 7.49407 0.523438 16.7385C0.523438 25.9829 8.0175 33.4769 17.2619 33.4769Z" fill="#00228A"/>
<path d="M26.6358 11.2072C26.6358 11.108 26.6358 11.108 26.5366 11.108C26.2887 11.108 26.0407 11.0832 25.8175 11.0336C24.9248 10.9096 22.0978 9.42172 21.6019 6.99154C21.6019 6.94195 21.4779 6.3468 21.4779 6.07403C21.4779 5.95004 21.4779 5.95004 21.3539 5.95004C21.3291 5.95004 21.3043 5.95004 21.2795 5.95004C20.1636 5.95004 19.0477 5.95004 17.9566 5.95004C17.7334 5.95004 17.7582 5.92524 17.7582 6.14842C17.7582 10.9592 17.7582 15.7947 17.7582 20.6055C17.7582 20.7791 17.7582 20.9527 17.7334 21.151C17.5599 22.0934 17.0887 22.8125 16.2704 23.3084C15.576 23.73 14.8073 23.854 14.0138 23.7052C13.7658 23.6556 13.5178 23.5564 13.2698 23.4572C13.245 23.4324 13.2203 23.4324 13.2203 23.4076C13.1459 23.3332 13.0467 23.2836 12.9723 23.234C11.9308 22.5149 11.4596 21.523 11.6084 20.2831C11.7572 19.0184 12.4763 18.1753 13.6666 17.729C14.0138 17.605 14.3857 17.5554 14.7825 17.5554C15.0305 17.5802 15.2785 17.605 15.5016 17.6546C15.576 17.6794 15.6256 17.6546 15.6256 17.5554C15.6256 17.5306 15.6256 17.5058 15.6256 17.4562C15.6256 16.5883 15.6008 14.7036 15.6008 14.7036C15.6008 14.4557 15.6008 14.2077 15.6008 13.9597C15.6008 13.8853 15.576 13.8853 15.5016 13.8605C15.0553 13.8109 14.6089 13.7861 14.1626 13.8357C13.5426 13.8853 12.9475 14.0093 12.3523 14.2325C11.41 14.5796 10.5917 15.1004 9.87256 15.7947C9.25262 16.3899 8.78146 17.0842 8.43429 17.8529C8.08712 18.5969 7.91354 19.3904 7.86394 20.1839C7.83915 20.5311 7.83915 20.9031 7.88874 21.2502C7.93834 21.7462 8.03753 22.2173 8.18631 22.6885C8.60788 24.0276 9.4014 25.1435 10.4925 26.0114C10.6165 26.1106 10.7157 26.2098 10.8397 26.2594C10.8893 26.309 10.9637 26.3586 11.0133 26.4082C11.1868 26.5321 11.3852 26.6561 11.5836 26.7553C12.8235 27.3753 14.113 27.6232 15.5016 27.4497C17.2871 27.2265 18.7749 26.433 19.9404 25.0939C21.0315 23.8044 21.5771 22.3165 21.5771 20.6303C21.6019 18.2249 21.5771 15.8195 21.5771 13.439C21.5771 13.3894 21.5523 13.2902 21.6019 13.2654C21.6515 13.2406 21.7011 13.315 21.7507 13.3398C22.6434 13.9349 23.6105 14.3565 24.652 14.5796C25.2471 14.7284 25.8671 14.8028 26.487 14.8028C26.6854 14.8028 26.7102 14.8028 26.7102 14.6044C26.6854 13.7613 26.6358 11.4303 26.6358 11.2072Z" fill="white"/>
</g>
<defs>
<clipPath id="clip0_1185_14145">
<rect width="33.4769" height="33.4769" fill="white" transform="translate(0.523438)"/>
</clipPath>
</defs>
</svg>
