<svg width="23" height="23" viewBox="0 0 23 23" fill="none" xmlns="http://www.w3.org/2000/svg">
<path d="M13.417 6.70898H15.6569C15.8913 6.70898 16.0085 6.70898 16.1188 6.73546C16.2165 6.75894 16.31 6.79766 16.3958 6.8502C16.4925 6.90947 16.5754 6.99234 16.7411 7.15809L20.6346 11.0515C20.8003 11.2173 20.8832 11.3002 20.9424 11.3969C20.995 11.4826 21.0337 11.5761 21.0572 11.6739C21.0837 11.7842 21.0837 11.9014 21.0837 12.1358V14.8548C21.0837 15.3013 21.0837 15.5246 21.0107 15.7007C20.9134 15.9355 20.7269 16.1221 20.4921 16.2194C20.3159 16.2923 20.0927 16.2923 19.6462 16.2923M14.8545 16.2923H13.417M13.417 16.2923V6.90065C13.417 5.82722 13.417 5.2905 13.2081 4.8805C13.0243 4.51986 12.7311 4.22665 12.3705 4.04289C11.9605 3.83398 11.4238 3.83398 10.3503 3.83398H4.98366C3.91022 3.83398 3.37351 3.83398 2.96351 4.04289C2.60287 4.22665 2.30965 4.51986 2.1259 4.8805C1.91699 5.2905 1.91699 5.82722 1.91699 6.90065V14.3757C1.91699 15.4342 2.77511 16.2923 3.83366 16.2923M13.417 16.2923H9.58366M9.58366 16.2923C9.58366 17.8801 8.29648 19.1673 6.70866 19.1673C5.12084 19.1673 3.83366 17.8801 3.83366 16.2923M9.58366 16.2923C9.58366 14.7045 8.29648 13.4173 6.70866 13.4173C5.12084 13.4173 3.83366 14.7045 3.83366 16.2923M19.6462 16.7715C19.6462 18.0947 18.5735 19.1673 17.2503 19.1673C15.9271 19.1673 14.8545 18.0947 14.8545 16.7715C14.8545 15.4483 15.9271 14.3757 17.2503 14.3757C18.5735 14.3757 19.6462 15.4483 19.6462 16.7715Z" stroke="#00228A" stroke-width="2" stroke-linecap="round" stroke-linejoin="round"/>
</svg>
