<svg width="45" height="45" viewBox="0 0 45 45" fill="none" xmlns="http://www.w3.org/2000/svg">
<rect width="45" height="45" rx="8.62923" fill="#00228A"/>
<path d="M34.5363 15.8764C34.4298 15.4637 34.2268 15.0823 33.9438 14.7635C33.6609 14.4448 33.3062 14.1979 32.909 14.0432C29.0643 12.5663 22.9414 12.5786 22.6072 12.5804C22.2731 12.5777 16.1501 12.5662 12.3054 14.0432C11.9082 14.1979 11.5535 14.4448 11.2705 14.7635C10.9876 15.0822 10.7845 15.4636 10.6781 15.8763C10.3879 16.99 10.042 19.0265 10.042 22.4037C10.042 25.781 10.3879 27.8174 10.678 28.9311C10.7845 29.3438 10.9875 29.7252 11.2705 30.0439C11.5534 30.3627 11.9081 30.6096 12.3053 30.7643C15.9858 32.1782 21.7541 32.2273 22.5333 32.2273C22.6029 32.2274 22.6114 32.2274 22.6811 32.2273C23.4608 32.2273 29.2287 32.1781 32.9089 30.7643C33.3061 30.6096 33.6608 30.3627 33.9438 30.044C34.2267 29.7253 34.4298 29.3438 34.5362 28.9312C34.8264 27.8175 35.1723 25.781 35.1723 22.4037C35.1723 19.0265 34.8264 16.99 34.5363 15.8764ZM26.4461 22.777L21.061 26.3658C20.9935 26.4108 20.9149 26.4367 20.8338 26.4406C20.7527 26.4445 20.672 26.4264 20.6004 26.388C20.5287 26.3497 20.4689 26.2927 20.4271 26.223C20.3854 26.1534 20.3634 26.0737 20.3634 25.9925V18.815C20.3634 18.7338 20.3854 18.6541 20.4271 18.5844C20.4689 18.5148 20.5287 18.4578 20.6004 18.4194C20.672 18.3811 20.7527 18.363 20.8338 18.3669C20.9149 18.3708 20.9935 18.3967 21.061 18.4417L26.4461 22.0305C26.5076 22.0715 26.558 22.127 26.5929 22.1921C26.6277 22.2572 26.646 22.3299 26.646 22.4037C26.646 22.4776 26.6277 22.5503 26.5929 22.6154C26.558 22.6805 26.5076 22.736 26.4461 22.777Z" fill="white"/>
</svg>
